<svg xmlns="http://www.w3.org/2000/svg" width="128" height="128" xml:space="preserve"><path fill="#282D33" d="M46.872 93.337C21.483 93.337.821 72.406.812 46.68.806 34.275 5.577 22.579 14.246 13.746 22.958 4.881 34.542 0 46.864 0 59.195 0 70.76 4.857 79.477 13.677c8.71 8.817 13.507 20.531 13.507 32.984.002 12.406-4.766 24.096-13.425 32.915C70.83 88.45 59.235 93.337 46.91 93.337h-.001l-.038-2 .029-2c11.253 0 21.836-4.462 29.806-12.564 7.919-8.065 12.279-18.759 12.277-30.111 0-11.395-4.387-22.11-12.353-30.173C68.672 8.435 58.118 4 46.913 4 35.624 4 25.053 8.457 17.1 16.549 9.17 24.628 4.807 35.329 4.812 46.678c.007 23.522 18.876 42.659 42.06 42.659v4z"/><path fill="#282D33" d="M46.875 82.332c-9.397 0-18.239-3.716-24.896-10.464-6.651-6.742-10.311-15.69-10.307-25.197-.002-9.484 3.646-18.42 10.274-25.16 6.658-6.78 15.516-10.518 24.942-10.524 9.422 0 18.269 3.718 24.923 10.47 6.65 6.73 10.319 15.679 10.329 25.196.002 9.488-3.646 18.42-10.271 25.154-6.669 6.786-15.535 10.524-24.966 10.525h-.028zm.026-67.345c-8.355.005-16.2 3.317-22.101 9.328-5.888 5.988-9.129 13.927-9.127 22.357-.003 8.449 3.248 16.399 9.155 22.387 5.899 5.98 13.729 9.273 22.048 9.273v2l.026-2c8.351-.001 16.205-3.314 22.116-9.329 5.886-5.981 9.126-13.918 9.124-22.348-.008-8.458-3.268-16.409-9.177-22.389-5.898-5.984-13.733-9.279-22.064-9.279z"/><path fill="#282D33" d="m27.985 46.667-4-.001c.001-6.168 2.373-11.979 6.678-16.36 4.338-4.414 10.103-6.845 16.232-6.845v4c-5.048 0-9.799 2.006-13.378 5.649-3.567 3.629-5.531 8.444-5.532 13.557zM114.221 128c-1.706 0-3.401-.348-5.037-1.035l-.368-.154L77.84 95.417l17.168-17.394 31.011 31.424.15.366c1.701 4.161 1.258 8.662-1.218 12.349-2.454 3.655-6.466 5.838-10.73 5.838zm-3.133-4.582c3.904 1.465 8.219-.024 10.543-3.485 1.65-2.459 1.997-5.446.972-8.252L95.008 83.718 83.459 95.417l27.629 28.001z"/><path fill="#282D33" d="m100.096 89.383 2.848 2.809-11.079 11.233-2.848-2.809zM80.385 77.757l7.822 7.93-2.848 2.809-7.822-7.93z"/></svg>